<?xml version="1.0" encoding="UTF-8" standalone="no"?>
<!-- Created with Inkscape (http://www.inkscape.org/) -->

<svg
   width="300mm"
   height="300mm"
   viewBox="0 0 300 300"
   version="1.1"
   id="svg1"
   xml:space="preserve"
   inkscape:version="1.3.2 (091e20e, 2023-11-25, custom)"
   sodipodi:docname="fae_logo.svg"
   xmlns:inkscape="http://www.inkscape.org/namespaces/inkscape"
   xmlns:sodipodi="http://sodipodi.sourceforge.net/DTD/sodipodi-0.dtd"
   xmlns="http://www.w3.org/2000/svg"
   xmlns:svg="http://www.w3.org/2000/svg"><sodipodi:namedview
     id="namedview1"
     pagecolor="#505050"
     bordercolor="#eeeeee"
     borderopacity="1"
     inkscape:showpageshadow="0"
     inkscape:pageopacity="0"
     inkscape:pagecheckerboard="0"
     inkscape:deskcolor="#505050"
     inkscape:document-units="mm"
     inkscape:zoom="0.35355339"
     inkscape:cx="511.94531"
     inkscape:cy="739.63369"
     inkscape:window-width="1920"
     inkscape:window-height="1001"
     inkscape:window-x="1911"
     inkscape:window-y="-9"
     inkscape:window-maximized="1"
     inkscape:current-layer="layer1" /><defs
     id="defs1" /><g
     inkscape:label="Layer 1"
     inkscape:groupmode="layer"
     id="layer1"><path
       style="fill:#101010;stroke-width:15.2501"
       d="M 28.374725,283.67662 C 12.152851,260.97927 6.0090095,232.81453 11.558462,206.58723 c 5.94145,-28.07985 17.167275,-49.09128 34.441145,-64.4637 L 60.49608,129.22283 37.583732,107.99813 C 13.784498,85.951902 0.15224553,62.352872 0.00104204,42.938003 -0.11861974,27.58111 10.091744,3.9248084 18.200827,0.7708332 29.12692,-3.4787474 65.390271,10.534754 82.998246,25.811059 c 17.458944,15.146859 32.004244,45.451505 27.511334,57.3188 -2.35243,6.213388 -3.42942,6.062929 -11.508233,-1.607306 -17.520429,-16.634584 -42.97918,-20.392252 -42.97918,-6.34373 0,7.910816 17.635518,23.939572 40.927304,37.198307 10.549819,6.00551 19.183329,12.2671 19.185619,13.91479 0.002,1.64754 -7.29614,7.66655 -16.218677,13.37543 -21.435027,13.71491 -23.918161,21.31911 -10.502711,32.16146 13.599788,10.9911 13.424678,15.03802 -1.608973,37.18495 -15.592935,22.97111 -30.440128,56.09273 -33.957303,75.75339 -3.529016,19.72683 -10.817588,19.41471 -25.472701,-1.09008 z m 218.089165,0.50358 c -3.4691,-20.8123 -20.94077,-57.68482 -41.17383,-86.89432 -20.08569,-28.99673 -26.80908,-55.1387 -22.91858,-89.11333 7.07573,-61.792699 36.69152,-99.2128627 84.67447,-106.9881057 14.82432,-2.40214 17.36595,-1.58321319 23.22806,7.4847715 19.12639,29.5865702 9.86803,64.2121772 -26.22561,98.0817942 l -23.91028,22.43711 15.67333,14.35204 c 28.57545,26.16639 41.62552,72.11074 31.00254,109.14799 -5.97648,20.83734 -24.81262,47.31184 -33.66168,47.31184 -2.22822,0 -5.23804,-7.11891 -6.68842,-15.81979 z M 231.24195,101.07315 c 24.98623,-15.441359 48.45905,-59.382272 37.60081,-70.387805 -6.79732,-6.889539 -39.00514,10.74253 -48.52797,26.566631 -9.021,14.989959 -14.0103,36.585724 -10.55862,45.702524 3.01845,7.97269 5.95709,7.71553 21.48578,-1.88135 z m -70.97639,129.94708 c -3.80355,-7.20319 -11.62228,-55.84078 -11.94038,-74.27566 -0.0908,-5.57547 -2.63082,-4.32881 -11.38157,5.59773 -8.68774,9.8553 -13.26247,12.12585 -20.03888,9.94587 -12.33709,-3.96876 -10.95457,-11.01875 4.96143,-25.30093 9.6793,-8.6857 15.62776,-19.10873 20.1184,-35.25232 3.50682,-12.606409 9.15445,-32.918953 12.55037,-45.139223 3.39593,-12.220122 9.53843,-26.397594 13.65009,-31.505095 6.67083,-8.286975 7.76207,-8.540606 10.13841,-2.356242 1.46478,3.811713 -0.20449,19.710406 -3.71008,35.330318 -8.0673,35.950422 -8.14167,87.535782 -0.18783,130.035522 3.40198,18.17695 5.09898,34.83072 3.77128,37.00824 -4.02106,6.59445 -13.42272,4.45101 -17.93154,-4.08821 z"
       id="path1" /></g></svg>
