<?xml version="1.0" encoding="utf-8"?>
<svg width="500px" height="500px" viewBox="0 0 500 500" version="1.1" xmlns:xlink="http://www.w3.org/1999/xlink" xmlns="http://www.w3.org/2000/svg">
  <defs>
    <path d="M500 0L500 0L500 500L0 500L0 0L500 0Z" id="path_1" />
    <clipPath id="clip_1">
      <use xlink:href="#path_1" clip-rule="evenodd" fill-rule="evenodd" />
    </clipPath>
  </defs>
  <g id="Logo">
    <path d="M500 0L500 0L500 500L0 500L0 0L500 0Z" id="Logo" fill="none" stroke="none" />
    <path d="M357.019 44.7466C395.936 9.97285 454.149 -6.20541 472.382 2.17567C490.617 10.5568 511.541 57.493 492.416 110.1C473.289 162.707 395.878 212.599 395.878 212.599C395.878 212.599 473.127 250.639 484.172 353.342C495.216 456.045 416.68 499.747 416.68 499.747C416.68 499.747 403.177 430.387 386.538 398.229C363.447 353.6 356.911 348.143 337.052 319.903C315.45 289.186 298.887 249.945 300.296 207.968C302.352 146.735 318.099 79.5182 357.019 44.7466L357.019 44.7466ZM372.707 85.3946C395.126 59.0444 442.385 40.0799 450.577 53.3224C458.38 65.937 444.679 102.046 428.634 123.609C406.65 153.15 375.563 181.061 355.811 176.426C340.667 172.872 348.848 113.438 372.707 85.3946L372.707 85.3946ZM194.732 249.294L194.733 249.293C204.731 240.498 219.243 234.89 230.25 204.552C244.977 163.959 238.829 174.402 249.843 132.574C260.857 90.7452 276.271 45.7274 292.346 48.6509C304.345 50.8329 303.138 57.5064 301.055 69.0348C300.986 69.4144 300.917 69.7992 300.847 70.1892C300.78 70.5591 300.436 71.8431 299.878 73.9264C294.949 92.3205 273.323 173.025 278.613 237.11C284.502 308.453 297.221 353.984 299.664 367.712C303.791 390.907 297.194 391.816 278.613 394.015C249.034 397.516 247.35 244.057 247.35 244.057C247.35 244.057 214.011 304.803 187.53 282.241C172.164 269.148 180.908 261.455 194.732 249.294L194.732 249.294ZM180.368 147.745C192.418 128.828 181.901 79.776 142.982 45.0026C104.064 10.2296 45.8503 -5.94857 27.6167 2.43246C9.38308 10.8135 -11.542 57.75 7.58441 110.356C26.7108 162.96 104.122 212.852 104.122 212.852C104.122 212.852 26.8735 250.892 15.8287 353.594C4.78388 456.298 83.3205 500 83.3205 500C83.3205 500 96.822 430.64 113.462 398.479C123.161 379.734 134.849 362.581 144.973 347.724C158.951 327.209 169.947 311.071 168.612 301.157C167.598 293.624 159.162 288.89 150.559 284.063C139.638 277.936 128.447 271.657 131.825 259.309C135.244 246.813 155.62 235.95 172.653 226.87C185.711 219.908 196.805 213.993 196.787 209.193C196.775 205.369 183.616 197.78 166.735 188.045C134.783 169.618 89.4985 143.502 94.7822 120.67C99.0784 102.107 141.288 105.564 180.368 147.745L180.368 147.745Z" id="Shape" fill="#161616" fill-rule="evenodd" stroke="none" clip-path="url(#clip_1)" />
  </g>
</svg>